<mxfile host="app.diagrams.net" agent="Mozilla/5.0 (Macintosh; Intel Mac OS X 10_15_7) AppleWebKit/537.36 (KHTML, like Gecko) Chrome/134.0.0.0 Safari/537.36" version="26.2.4">
  <diagram name="第 1 页" id="Cd4bjGEX7V_F956_sxfr">
    <mxGraphModel dx="2794" dy="1800" grid="1" gridSize="10" guides="1" tooltips="1" connect="1" arrows="1" fold="1" page="1" pageScale="1" pageWidth="827" pageHeight="1169" background="light-dark(#FFE2FC,#EDEDED)" math="0" shadow="0">
      <root>
        <mxCell id="0" />
        <mxCell id="1" parent="0" />
        <mxCell id="lV6AZhjYDxyypOXSLpJb-2" value="&lt;font style=&quot;font-size: 30px;&quot; face=&quot;Times New Roman&quot;&gt;&lt;b&gt;天津市实验中学&lt;/b&gt;&lt;/font&gt;" style="text;html=1;align=center;verticalAlign=middle;whiteSpace=wrap;rounded=0;" vertex="1" parent="1">
          <mxGeometry x="450" y="125" width="230" height="50" as="geometry" />
        </mxCell>
        <mxCell id="lV6AZhjYDxyypOXSLpJb-7" style="edgeStyle=orthogonalEdgeStyle;rounded=0;orthogonalLoop=1;jettySize=auto;html=1;exitX=1;exitY=0.5;exitDx=0;exitDy=0;entryX=0;entryY=0.5;entryDx=0;entryDy=0;" edge="1" parent="1" source="lV6AZhjYDxyypOXSLpJb-5" target="lV6AZhjYDxyypOXSLpJb-2">
          <mxGeometry relative="1" as="geometry" />
        </mxCell>
        <mxCell id="lV6AZhjYDxyypOXSLpJb-5" value="&lt;font face=&quot;Times New Roman&quot;&gt;&lt;span style=&quot;font-size: 35px;&quot;&gt;2019.9-2022.6&lt;/span&gt;&lt;/font&gt;" style="text;html=1;align=center;verticalAlign=middle;whiteSpace=wrap;rounded=0;" vertex="1" parent="1">
          <mxGeometry x="120" y="130" width="240" height="40" as="geometry" />
        </mxCell>
        <mxCell id="lV6AZhjYDxyypOXSLpJb-8" value="&lt;font style=&quot;font-size: 30px;&quot; face=&quot;Times New Roman&quot;&gt;&lt;b&gt;华中农业大学&lt;/b&gt;&lt;/font&gt;" style="text;html=1;align=center;verticalAlign=middle;whiteSpace=wrap;rounded=0;" vertex="1" parent="1">
          <mxGeometry x="450" y="200" width="230" height="50" as="geometry" />
        </mxCell>
        <mxCell id="lV6AZhjYDxyypOXSLpJb-9" style="edgeStyle=orthogonalEdgeStyle;rounded=0;orthogonalLoop=1;jettySize=auto;html=1;exitX=1;exitY=0.5;exitDx=0;exitDy=0;entryX=0;entryY=0.5;entryDx=0;entryDy=0;" edge="1" parent="1" source="lV6AZhjYDxyypOXSLpJb-10" target="lV6AZhjYDxyypOXSLpJb-8">
          <mxGeometry relative="1" as="geometry" />
        </mxCell>
        <mxCell id="lV6AZhjYDxyypOXSLpJb-10" value="&lt;font face=&quot;Times New Roman&quot;&gt;&lt;span style=&quot;font-size: 35px;&quot;&gt;2022.9-2026.6&lt;/span&gt;&lt;/font&gt;" style="text;html=1;align=center;verticalAlign=middle;whiteSpace=wrap;rounded=0;" vertex="1" parent="1">
          <mxGeometry x="120" y="205" width="240" height="40" as="geometry" />
        </mxCell>
      </root>
    </mxGraphModel>
  </diagram>
</mxfile>
